<svg width="96" height="103" viewBox="0 0 96 103" fill="none" xmlns="http://www.w3.org/2000/svg">
<g filter="url(#filter0_dddd_103_500)">
<rect x="3" y="3" width="66" height="66" rx="33" fill="#02071B"/>
<path d="M41.0424 29.255C42.2088 29.512 42.8601 30.6949 42.5597 31.8378C43.7379 32.0315 44.4337 33.3059 44.0829 34.416C45.4042 34.6225 46.1001 36.1363 45.4992 37.3262C45.4195 37.4846 45.0451 37.8719 45.105 37.988L46.9567 39.8374C47.1151 39.9078 47.2583 39.7494 47.4202 39.7142C48.1677 39.5534 48.7556 39.7306 49.3295 40.2141C50.4584 41.1646 51.6447 42.4871 50.4713 43.9376L43.9385 50.4703C42.4858 51.6719 41.0576 50.3929 40.1282 49.2393C39.5967 48.5798 39.4887 47.8042 39.8536 47.0297L37.4656 44.583C36.4377 44.7296 35.3287 44.3412 34.3371 44.6768L32.0817 46.971C32.3903 47.5084 32.4431 48.0799 32.2354 48.6678C32.0277 49.2557 30.6677 50.6217 30.0798 50.8482C29.4918 51.0746 28.9591 51.0488 28.4099 50.7625C28.1283 50.6158 26.7647 49.3262 26.5981 49.0598C26.2695 48.5376 26.7353 47.9321 27.3127 48.1691C27.5979 48.2865 28.3665 49.2651 28.7056 49.5292C29.0858 49.8249 29.3804 49.954 29.8181 49.6477C29.9612 49.5479 30.9646 48.5458 31.0455 48.4144C31.2251 48.1245 31.2227 47.7901 31.0103 47.5167L24.7803 41.2679C24.4811 40.9663 24.0387 40.7574 23.6385 41.0086C23.4731 41.113 22.5742 42.0236 22.4334 42.2055C21.7129 43.1419 23.2877 43.9399 23.7841 44.6076C24.2171 45.192 23.5881 45.8128 23.0295 45.4783C22.7514 45.3117 21.3761 43.866 21.2411 43.5761C20.8715 42.7793 21.0416 42.0095 21.5838 41.3559C22.1259 40.7023 23.1152 39.7072 24.0199 39.686C24.2969 39.679 24.8226 39.9078 24.9822 39.8351L26.8327 37.988C26.9032 37.8507 26.6239 37.6982 26.5406 37.575C25.7731 36.4402 26.2519 34.8924 27.5626 34.4723C26.7447 33.2448 27.369 31.6618 28.7866 31.3027C28.5319 30.1445 29.1821 28.9476 30.3755 28.7316C29.9788 27.4127 31.0232 26.0502 32.3962 26.0913C32.5746 26.0972 32.9114 26.2298 33.0287 26.2028C33.0956 26.1875 33.3608 25.9493 33.5392 25.8907C33.7633 25.8179 34.0379 25.7921 34.2738 25.8003C35.5611 25.8402 37.387 26.4035 38.7318 26.6159C38.9043 26.6429 39.085 26.6018 39.2517 26.6241C40.5789 26.8013 41.3076 27.9712 41.0447 29.255H41.0424ZM37.2286 27.5018L34.1506 26.9714L33.9522 27.07C33.8314 27.4784 35.2524 28.9687 35.7359 29.0673C36.1408 28.6073 36.778 28.1519 37.1417 27.6779C37.1863 27.6192 37.2556 27.6039 37.2286 27.5018ZM32.2929 27.2824C31.5595 27.3235 31.2427 28.1308 31.664 28.7035C32.3598 29.6493 33.7128 30.5705 34.4791 31.5128C35.0659 31.8824 35.8169 31.5574 35.8556 30.8439C35.8885 30.2313 35.3827 30.2407 34.9497 29.9873C34.1459 29.5179 33.4465 28.7657 33.0017 27.9513C32.8081 27.5969 32.8879 27.2484 32.2941 27.2812L32.2929 27.2824ZM44.2976 35.7831C43.4116 34.8947 42.8155 36.2853 42.3285 36.4402C41.7899 36.6127 41.4073 36.094 41.608 35.6023C41.7594 35.2327 42.7064 34.6565 42.9023 34.2012C43.2567 33.3739 42.3778 32.6088 41.6256 33.1005C41.3768 33.2624 40.9919 33.8445 40.7478 33.9208C40.0097 34.1519 39.6682 33.4255 40.1869 32.8329C40.6364 32.3213 42.095 31.4213 41.1844 30.6069C40.2339 29.7561 39.7316 31.21 39.1777 31.3544C38.6238 31.4987 38.1955 30.9965 38.4666 30.4684C38.6626 30.0882 39.5298 29.5378 39.775 29.14C40.1646 28.5087 39.6319 27.7025 38.9137 27.8069C38.2824 27.8996 37.3225 29.2656 36.7874 29.6716C36.724 29.8112 36.9282 30.1105 36.9775 30.3018C37.3072 31.582 36.3332 32.8635 35.0084 32.8388C34.9333 33.9853 34.1259 34.8983 32.9477 34.9088C32.855 34.9722 32.9067 35.2421 32.8797 35.3677C32.6661 36.3545 31.8224 36.9143 30.8507 37C30.8507 38.3166 29.5928 39.2965 28.3113 38.9667C28.1189 38.9174 27.8208 38.7144 27.6812 38.7766L25.9174 40.5333L25.8681 40.6999L31.2814 46.0709L33.5943 43.7568C34.864 42.7793 36.9704 43.9493 38.1615 43.1103C38.5499 42.8368 39.0721 41.8675 39.6565 42.5024C40.2209 43.1161 39.0686 43.7345 38.7529 44.1687L40.7068 46.0686L46.0719 40.7046L44.2225 38.813C44.0465 38.7825 43.7085 39.6203 43.0467 39.2307C42.7463 39.0547 42.7111 38.6792 42.8859 38.4011C43.1851 37.9247 44.219 37.2675 44.449 36.7993C44.6074 36.4754 44.5593 36.0412 44.3 35.7819L44.2976 35.7831ZM30.7134 29.8582C30.0809 29.9075 29.7054 30.6526 30.0539 31.1912C30.8261 31.7885 31.6593 33.0489 32.4291 33.5628C33.1989 34.0768 34.1294 33.2577 33.6812 32.4281C33.6354 32.3424 33.4946 32.1828 33.423 32.1007C32.8151 31.3966 31.8893 30.7629 31.2837 30.0213C31.1324 29.911 30.9024 29.8441 30.7146 29.8582H30.7134ZM28.6364 32.6769C28.3677 32.9456 28.3207 33.3164 28.4674 33.6555C28.5953 33.9501 29.8932 35.2585 30.1971 35.4991C31.1242 36.2302 32.1181 35.3008 31.5935 34.4535C31.4703 34.2552 29.9648 32.7391 29.7582 32.5982C29.4203 32.3671 28.9368 32.3765 28.6352 32.6769H28.6364ZM28.0743 35.5425C27.4852 35.6364 27.2165 36.2525 27.45 36.7829C27.531 36.9648 28.1599 37.609 28.3407 37.7087C29.2255 38.1993 30.1021 37.2288 29.4085 36.3487C29.1046 35.9638 28.5977 35.4592 28.0743 35.5425ZM47.6995 40.8736C47.5716 40.9006 47.4284 41.0039 47.3334 41.093L40.9156 47.5648C40.8006 47.8053 40.796 48.0881 40.9274 48.3228C41.0001 48.4531 42.1044 49.5503 42.2475 49.6383C42.5116 49.8014 42.697 49.8061 42.9845 49.6911C45.2763 47.5706 47.4766 45.3035 49.651 43.0586C49.8282 42.723 49.8141 42.4824 49.59 42.1785C49.4855 42.0365 48.4318 40.9816 48.3226 40.9264C48.149 40.8372 47.8896 40.8349 47.6983 40.8736H47.6995Z" fill="white"/>
<path d="M28.9473 24.3182C28.695 24.5705 28.3429 24.4989 28.0871 24.31C27.3525 23.7702 26.6296 22.7046 25.8939 22.1085C25.5629 21.3446 26.2283 20.8623 26.889 21.4068C27.2328 21.6896 28.8029 23.2128 28.9942 23.519C29.1456 23.7608 29.1597 24.1046 28.9473 24.317V24.3182Z" fill="white"/>
<path d="M45.3574 21.1877C45.9207 21.0716 46.2387 21.5773 46.0099 22.0749L43.7298 24.3643C43.1701 24.6964 42.588 24.2024 42.8497 23.6004L45.0207 21.3778C45.1134 21.3039 45.2424 21.2112 45.3574 21.1877Z" fill="white"/>
<path d="M35.8077 21.0114C36.1398 20.9481 36.4825 21.1534 36.5282 21.4949C36.4297 22.375 36.6538 23.5192 36.5224 24.3652C36.4344 24.9297 35.4428 25.0095 35.3524 24.2526C35.2914 23.7386 35.282 21.996 35.3571 21.5019C35.3935 21.2673 35.5695 21.0584 35.8066 21.0126L35.8077 21.0114Z" fill="white"/>
<path d="M25.028 46.2021C25.7298 46.1164 25.9492 47.2007 25.2932 47.3509C24.3416 47.568 24.2782 46.2948 25.028 46.2021Z" fill="white"/>
<path d="M40.9636 40.4604C41.7323 40.3255 41.9247 41.4508 41.2288 41.6093C40.3875 41.8005 40.2302 40.5883 40.9636 40.4604Z" fill="white"/>
</g>
<defs>
<filter id="filter0_dddd_103_500" x="0" y="0" width="96" height="103" filterUnits="userSpaceOnUse" color-interpolation-filters="sRGB">
<feFlood flood-opacity="0" result="BackgroundImageFix"/>
<feColorMatrix in="SourceAlpha" type="matrix" values="0 0 0 0 0 0 0 0 0 0 0 0 0 0 0 0 0 0 127 0" result="hardAlpha"/>
<feOffset dx="1" dy="1"/>
<feGaussianBlur stdDeviation="2"/>
<feColorMatrix type="matrix" values="0 0 0 0 0 0 0 0 0 0 0 0 0 0 0 0 0 0 0.1 0"/>
<feBlend mode="normal" in2="BackgroundImageFix" result="effect1_dropShadow_103_500"/>
<feColorMatrix in="SourceAlpha" type="matrix" values="0 0 0 0 0 0 0 0 0 0 0 0 0 0 0 0 0 0 127 0" result="hardAlpha"/>
<feOffset dx="4" dy="6"/>
<feGaussianBlur stdDeviation="3.5"/>
<feColorMatrix type="matrix" values="0 0 0 0 0 0 0 0 0 0 0 0 0 0 0 0 0 0 0.09 0"/>
<feBlend mode="normal" in2="effect1_dropShadow_103_500" result="effect2_dropShadow_103_500"/>
<feColorMatrix in="SourceAlpha" type="matrix" values="0 0 0 0 0 0 0 0 0 0 0 0 0 0 0 0 0 0 127 0" result="hardAlpha"/>
<feOffset dx="9" dy="13"/>
<feGaussianBlur stdDeviation="4.5"/>
<feColorMatrix type="matrix" values="0 0 0 0 0 0 0 0 0 0 0 0 0 0 0 0 0 0 0.05 0"/>
<feBlend mode="normal" in2="effect2_dropShadow_103_500" result="effect3_dropShadow_103_500"/>
<feColorMatrix in="SourceAlpha" type="matrix" values="0 0 0 0 0 0 0 0 0 0 0 0 0 0 0 0 0 0 127 0" result="hardAlpha"/>
<feOffset dx="16" dy="23"/>
<feGaussianBlur stdDeviation="5.5"/>
<feColorMatrix type="matrix" values="0 0 0 0 0 0 0 0 0 0 0 0 0 0 0 0 0 0 0.01 0"/>
<feBlend mode="normal" in2="effect3_dropShadow_103_500" result="effect4_dropShadow_103_500"/>
<feBlend mode="normal" in="SourceGraphic" in2="effect4_dropShadow_103_500" result="shape"/>
</filter>
</defs>
</svg>
