<svg width="96" height="103" viewBox="0 0 96 103" fill="none" xmlns="http://www.w3.org/2000/svg">
<g filter="url(#filter0_dddd_103_479)">
<rect x="3" y="3" width="66" height="66" rx="33" fill="#02071B"/>
<path d="M42.3369 42.3395C40.7844 49.8731 32.0738 53.5073 25.6468 49.0786C20.4495 45.4984 19.4122 37.973 23.6085 33.1853C23.8702 32.8872 24.5285 32.0811 24.9239 32.3404C25.5306 32.7394 24.6141 33.3684 24.3701 33.6547C20.5094 38.1995 21.2217 44.9751 26.1737 48.3769C31.9213 52.3244 39.8046 49.2077 41.3864 42.5037C38.3425 42.7807 35.2774 41.8278 33.0091 39.779C30.4474 37.4649 29.1707 34.0537 29.4946 30.6084C29.132 30.6882 28.7752 30.7914 28.4255 30.9158C28.0137 31.0637 26.9153 31.688 26.6478 31.7196C26.2593 31.7666 25.9894 31.4357 26.1889 31.0813C26.4811 30.5614 29.0041 29.7916 29.6577 29.6579C31.3381 21.3486 41.6716 18.0559 47.8006 24.1015C53.9565 30.1742 50.6931 40.6649 42.3346 42.3395H42.3369ZM41.0942 21.9365C40.3855 21.8461 39.6544 21.8368 38.9527 21.9916L31.5458 29.4361C31.9847 29.361 33.2414 29.686 33.57 29.4983L41.0942 21.9365ZM43.7885 22.5221C43.413 22.4763 42.432 21.9811 42.1163 22.1665L34.5921 29.6989L34.5346 29.8456L36.0554 30.288L43.7885 22.5221ZM37.345 22.346C34.2342 23.212 31.6631 25.803 30.7854 28.908L37.345 22.346ZM36.8768 30.7832L38.1664 31.519L45.9547 23.7237C45.8139 23.5946 44.7449 22.9234 44.6662 22.9598L36.8768 30.7844V30.7832ZM46.6377 24.2834L38.894 32.0142C38.8553 32.0588 38.8705 32.0858 38.894 32.1304C39.0254 32.3862 39.7037 32.8415 39.8938 33.1254L47.6574 25.3043L46.6388 24.2834H46.6377ZM48.2148 26.0389L40.4758 33.7732C40.4359 33.8319 40.4676 33.8765 40.4922 33.9293C40.6483 34.2602 41.0802 34.6885 41.2397 35.0593L48.974 27.3239C49.028 27.2042 48.7804 26.8064 48.6971 26.6632C48.6349 26.5564 48.3063 26.0178 48.2148 26.0389ZM49.4692 28.2051L41.7068 35.8831L42.148 37.4039L42.2947 37.3464L49.8248 29.8186C49.894 29.7506 49.8776 29.6837 49.8682 29.5992C49.8201 29.1486 49.549 28.6534 49.4692 28.2051ZM32.6594 30.3737C32.2651 30.3737 30.6997 30.2458 30.4638 30.491C30.2632 31.1787 30.3547 31.9438 30.3758 32.6584L32.6594 30.3737ZM35.295 30.9592C34.9547 30.9428 33.9831 30.4546 33.7155 30.5767L30.6058 33.6805C30.5366 33.7486 30.553 33.8154 30.5624 33.8999C30.6105 34.3494 30.9027 34.8387 30.9614 35.294L35.295 30.9581V30.9592ZM42.5587 40.3939L50.0008 32.9846C50.1757 32.2852 50.1264 31.553 50.056 30.8431L42.4109 38.4623L42.5599 40.395L42.5587 40.3939ZM36.215 31.4357L31.4566 36.1764C31.4026 36.2562 31.4425 36.3173 31.4742 36.3912C31.5247 36.5121 32.102 37.4485 32.1642 37.4637L37.4612 32.2148C37.4835 32.1315 37.4084 32.121 37.3661 32.0811C37.2418 31.9637 36.3265 31.4063 36.2162 31.4357H36.215ZM38.1946 32.7183L32.7192 38.196L33.7155 39.1946L39.1944 33.8295L39.2155 33.7509L38.1958 32.7183H38.1946ZM39.7764 34.4761L34.5322 39.8376C34.7118 39.9609 35.6247 40.6121 35.762 40.5429L40.558 35.7258L39.7764 34.4761ZM42.9682 41.2716C46.1706 40.3587 48.8133 37.7512 49.7039 34.5336L42.9682 41.2716ZM40.9476 36.6447L36.7008 41.0099C36.9848 41.0815 38.008 41.5169 38.2216 41.4218L41.3911 38.257C41.4451 38.2089 41.4381 38.1608 41.4345 38.0962C41.4275 37.9542 41.025 36.6435 40.9464 36.6447H40.9476ZM39.2777 41.6236C39.6415 41.5697 40.0147 41.6894 40.362 41.687C40.5556 41.6858 41.052 41.6495 41.2362 41.6213C41.4392 41.5896 41.5859 41.4418 41.6164 41.2399C41.6446 41.0545 41.681 40.5593 41.6821 40.3645C41.6845 40.0172 41.5648 39.644 41.6188 39.2803L39.2765 41.6236H39.2777Z" fill="white"/>
</g>
<defs>
<filter id="filter0_dddd_103_479" x="0" y="0" width="96" height="103" filterUnits="userSpaceOnUse" color-interpolation-filters="sRGB">
<feFlood flood-opacity="0" result="BackgroundImageFix"/>
<feColorMatrix in="SourceAlpha" type="matrix" values="0 0 0 0 0 0 0 0 0 0 0 0 0 0 0 0 0 0 127 0" result="hardAlpha"/>
<feOffset dx="1" dy="1"/>
<feGaussianBlur stdDeviation="2"/>
<feColorMatrix type="matrix" values="0 0 0 0 0 0 0 0 0 0 0 0 0 0 0 0 0 0 0.1 0"/>
<feBlend mode="normal" in2="BackgroundImageFix" result="effect1_dropShadow_103_479"/>
<feColorMatrix in="SourceAlpha" type="matrix" values="0 0 0 0 0 0 0 0 0 0 0 0 0 0 0 0 0 0 127 0" result="hardAlpha"/>
<feOffset dx="4" dy="6"/>
<feGaussianBlur stdDeviation="3.5"/>
<feColorMatrix type="matrix" values="0 0 0 0 0 0 0 0 0 0 0 0 0 0 0 0 0 0 0.09 0"/>
<feBlend mode="normal" in2="effect1_dropShadow_103_479" result="effect2_dropShadow_103_479"/>
<feColorMatrix in="SourceAlpha" type="matrix" values="0 0 0 0 0 0 0 0 0 0 0 0 0 0 0 0 0 0 127 0" result="hardAlpha"/>
<feOffset dx="9" dy="13"/>
<feGaussianBlur stdDeviation="4.5"/>
<feColorMatrix type="matrix" values="0 0 0 0 0 0 0 0 0 0 0 0 0 0 0 0 0 0 0.05 0"/>
<feBlend mode="normal" in2="effect2_dropShadow_103_479" result="effect3_dropShadow_103_479"/>
<feColorMatrix in="SourceAlpha" type="matrix" values="0 0 0 0 0 0 0 0 0 0 0 0 0 0 0 0 0 0 127 0" result="hardAlpha"/>
<feOffset dx="16" dy="23"/>
<feGaussianBlur stdDeviation="5.5"/>
<feColorMatrix type="matrix" values="0 0 0 0 0 0 0 0 0 0 0 0 0 0 0 0 0 0 0.01 0"/>
<feBlend mode="normal" in2="effect3_dropShadow_103_479" result="effect4_dropShadow_103_479"/>
<feBlend mode="normal" in="SourceGraphic" in2="effect4_dropShadow_103_479" result="shape"/>
</filter>
</defs>
</svg>
