<svg width="96" height="103" viewBox="0 0 96 103" fill="none" xmlns="http://www.w3.org/2000/svg">
<g filter="url(#filter0_dddd_103_494)">
<rect x="3" y="3" width="66" height="66" rx="33" fill="#02071B"/>
<path d="M38.5876 24.8634L44.3037 28.1427C44.4222 28.1673 44.5994 28.0429 44.7097 27.9866C45.071 27.8024 46.2056 27.0093 46.5094 27.0398C46.6303 27.0515 46.8685 27.2005 46.994 27.2639C47.414 27.4751 48.5216 28.0711 48.8501 28.3363C48.9311 28.402 49.0097 28.5216 49.0355 28.6202C49.1282 28.9757 49.1059 30.684 49.066 31.1134C49.0402 31.3938 48.9545 31.4947 48.7316 31.6578C48.4923 31.8326 47.0057 32.5753 46.9635 32.702L46.9506 39.1971L47.0116 39.3708C47.3835 39.6512 48.87 40.2789 49.0179 40.6438C49.0554 40.7365 49.0566 40.7951 49.0648 40.889C49.1141 41.4205 49.1293 42.7803 49.0578 43.2895C49.0437 43.3892 48.9756 43.5476 48.9017 43.618L46.6033 44.9356C46.5564 44.9555 46.5071 44.9661 46.4555 44.9661C46.0284 44.9661 44.8575 43.9641 44.346 43.8526L40.2208 46.225C39.6435 46.4139 39.2939 45.8765 39.6353 45.406L43.8203 42.9727C43.974 42.4119 43.676 41.018 43.9424 40.5757C44.1629 40.2085 45.8724 39.5268 45.9486 39.3027L45.9615 32.8076L45.8994 32.6363C45.5169 32.3101 44.1664 31.8032 43.9424 31.4313C43.6737 30.9843 44.0092 29.269 43.791 29.005C43.7617 28.9687 43.6314 28.9065 43.5751 28.8701C41.8422 27.7708 39.931 26.8533 38.184 25.7633C37.9259 25.7117 36.796 26.5036 36.471 26.6632C36.051 26.8709 36.0428 26.9061 35.6099 26.7019C34.9118 26.3734 34.1973 25.8372 33.5156 25.4583C33.4276 25.3667 33.4323 25.2576 33.4217 25.1415C33.3666 24.5419 33.3666 23.3347 33.4217 22.7351C33.4452 22.4829 33.491 22.3984 33.6974 22.2494L35.9184 21.0093C36.0674 20.9764 36.1695 21.0374 36.2962 21.0926C36.7456 21.2897 37.9059 21.9584 38.3048 22.247C38.4738 22.3691 38.5536 22.4606 38.5794 22.6753C38.6204 23.0202 38.5125 24.7449 38.5876 24.8634ZM34.4319 24.8611L35.9818 25.7375L37.4894 24.9256C37.5809 24.8834 37.5762 24.8141 37.5868 24.7297C37.6091 24.5419 37.5997 23.0754 37.554 22.9991L36.0275 22.1203C35.8985 22.1121 34.8871 22.714 34.6959 22.8348C34.6384 22.8712 34.5093 22.9346 34.48 22.9698C34.3263 23.1551 34.4624 24.5243 34.4331 24.8611H34.4319ZM48.0546 30.894C48.098 30.8201 48.0922 29.357 48.0699 29.1751C48.0605 29.0907 48.064 29.0214 47.9725 28.9792L46.4555 28.1579L44.8575 29.0437L44.8552 30.8963L46.4567 31.781L48.0546 30.894ZM48.0546 41.1084L46.4567 40.2214L44.8552 41.106L44.8575 42.9586L46.4555 43.8444L47.9725 43.0231C48.064 42.9809 48.0593 42.9117 48.0699 42.8272C48.091 42.6442 48.0969 41.1823 48.0546 41.1084Z" fill="white"/>
<path d="M33.4132 47.1381L27.7416 43.8729L27.5234 43.8928C26.8523 44.2331 26.207 44.7646 25.4913 44.9617L23.0979 43.6171C23.0427 43.5643 22.9829 43.454 22.9665 43.3825C22.8714 42.9742 22.8914 41.3562 22.9348 40.8881C22.9606 40.6077 23.0463 40.508 23.2692 40.3437C23.5073 40.1701 24.9927 39.4333 25.0373 39.2995L25.0502 32.8043L24.9892 32.6307C24.6196 32.348 23.1284 31.7191 22.9829 31.3577C22.9454 31.265 22.9442 31.2064 22.936 31.1125C22.889 30.6021 22.8691 29.1919 22.943 28.712C22.963 28.5818 23.0463 28.4175 23.1518 28.3354L25.5453 27.0354L27.6994 28.143L31.6052 25.8962C32.227 25.7038 32.5825 26.3761 32.0721 26.7726L28.1804 29.0311C28.0244 29.6189 28.3283 30.9483 28.0584 31.4269C27.8601 31.7789 26.1179 32.5016 26.0521 32.6999L26.0392 39.1951L26.1003 39.3687C26.4769 39.6656 27.8613 40.2252 28.0584 40.5737C28.3248 41.0453 27.9951 42.7383 28.2098 42.9988L33.818 46.2394C33.9048 46.2757 33.9717 46.23 34.0491 46.2042C34.5008 46.0575 35.6412 45.1341 36.019 45.1541C36.4942 45.1787 37.9244 46.3039 38.4606 46.5116C38.5638 46.6277 38.5661 46.7157 38.5791 46.8612C38.6342 47.4631 38.6342 48.6668 38.5791 49.2675C38.5556 49.5198 38.5098 49.6043 38.3033 49.7533L36.0812 50.9911C35.9322 51.0239 35.8301 50.9629 35.7034 50.9078C35.2658 50.7153 34.0831 50.0349 33.6948 49.7533C33.5258 49.6313 33.446 49.5397 33.4202 49.325C33.3803 48.9824 33.4859 47.2542 33.412 47.1369L33.4132 47.1381ZM27.1433 29.044L25.5453 28.1582L23.9332 29.0734L23.9438 30.8966L25.5453 31.7813L27.1468 30.8966L27.1445 29.044H27.1433ZM27.1456 41.1063L25.5441 40.2217L23.9426 41.1063L23.945 42.9589L25.543 43.8447L27.1163 42.9765L27.1445 41.1063H27.1456ZM34.4316 47.1416C34.4609 47.4783 34.3248 48.8475 34.4785 49.0329C34.5078 49.0693 34.6381 49.1314 34.6944 49.1678C34.8856 49.2887 35.897 49.8905 36.026 49.8823L37.5525 49.0036C37.5982 48.9273 37.6076 47.4607 37.5853 47.273C37.5759 47.1885 37.5794 47.1193 37.4879 47.0771L35.9803 46.2652L34.4304 47.1416H34.4316Z" fill="white"/>
<path d="M35.4619 27.9951C38.9371 27.7463 42.2962 29.9016 43.4999 33.1598C43.6454 33.554 44.0479 34.441 43.3979 34.5841C42.7479 34.7272 42.7256 33.9013 42.5473 33.4683C39.1049 25.144 26.91 29.518 29.2507 37.9197C31.1291 44.6636 40.8707 44.673 42.7538 37.9197C42.8805 37.4656 42.8828 36.2994 43.5598 36.4332C44.2368 36.5669 43.8261 37.7977 43.69 38.2705C41.875 44.6202 33.3806 46.068 29.51 40.7038C25.8142 35.5802 29.2038 28.4421 35.4619 27.9939V27.9951Z" fill="white"/>
<path d="M35.8678 30.6838C36.1283 30.6321 36.2362 30.7342 36.4497 30.8375C37.5444 31.3678 39.2198 32.3474 40.2358 33.0256C40.5116 33.2098 40.6559 33.2591 40.6899 33.6263C40.8272 35.1339 40.5796 36.8457 40.6899 38.3757C40.6582 38.8825 39.9073 39.1606 39.4967 39.4081C38.5675 39.9678 37.4071 40.7011 36.4509 41.1645C36.1916 41.29 35.9968 41.4332 35.7059 41.2454C34.461 40.4183 32.9534 39.7871 31.7309 38.9541C31.4669 38.7746 31.3449 38.7265 31.3132 38.3757C31.1759 36.868 31.4235 35.1562 31.3132 33.6263C31.2944 33.3036 31.5373 33.1781 31.7672 33.0256L35.8701 30.6838H35.8678ZM39.1635 33.5418C38.0723 33.0139 37.0809 32.2677 35.9757 31.7843L32.8384 33.5418L35.9804 35.4026L39.1635 33.5418ZM35.4736 36.2356L32.3105 34.4781V38.168L35.4736 39.9255V36.2356ZM39.6903 34.4781L36.5272 36.2356V39.9255L39.6903 38.168V34.4781Z" fill="white"/>
</g>
<defs>
<filter id="filter0_dddd_103_494" x="0" y="0" width="96" height="103" filterUnits="userSpaceOnUse" color-interpolation-filters="sRGB">
<feFlood flood-opacity="0" result="BackgroundImageFix"/>
<feColorMatrix in="SourceAlpha" type="matrix" values="0 0 0 0 0 0 0 0 0 0 0 0 0 0 0 0 0 0 127 0" result="hardAlpha"/>
<feOffset dx="1" dy="1"/>
<feGaussianBlur stdDeviation="2"/>
<feColorMatrix type="matrix" values="0 0 0 0 0 0 0 0 0 0 0 0 0 0 0 0 0 0 0.1 0"/>
<feBlend mode="normal" in2="BackgroundImageFix" result="effect1_dropShadow_103_494"/>
<feColorMatrix in="SourceAlpha" type="matrix" values="0 0 0 0 0 0 0 0 0 0 0 0 0 0 0 0 0 0 127 0" result="hardAlpha"/>
<feOffset dx="4" dy="6"/>
<feGaussianBlur stdDeviation="3.5"/>
<feColorMatrix type="matrix" values="0 0 0 0 0 0 0 0 0 0 0 0 0 0 0 0 0 0 0.09 0"/>
<feBlend mode="normal" in2="effect1_dropShadow_103_494" result="effect2_dropShadow_103_494"/>
<feColorMatrix in="SourceAlpha" type="matrix" values="0 0 0 0 0 0 0 0 0 0 0 0 0 0 0 0 0 0 127 0" result="hardAlpha"/>
<feOffset dx="9" dy="13"/>
<feGaussianBlur stdDeviation="4.5"/>
<feColorMatrix type="matrix" values="0 0 0 0 0 0 0 0 0 0 0 0 0 0 0 0 0 0 0.05 0"/>
<feBlend mode="normal" in2="effect2_dropShadow_103_494" result="effect3_dropShadow_103_494"/>
<feColorMatrix in="SourceAlpha" type="matrix" values="0 0 0 0 0 0 0 0 0 0 0 0 0 0 0 0 0 0 127 0" result="hardAlpha"/>
<feOffset dx="16" dy="23"/>
<feGaussianBlur stdDeviation="5.5"/>
<feColorMatrix type="matrix" values="0 0 0 0 0 0 0 0 0 0 0 0 0 0 0 0 0 0 0.01 0"/>
<feBlend mode="normal" in2="effect3_dropShadow_103_494" result="effect4_dropShadow_103_494"/>
<feBlend mode="normal" in="SourceGraphic" in2="effect4_dropShadow_103_494" result="shape"/>
</filter>
</defs>
</svg>
