<svg width="96" height="103" viewBox="0 0 96 103" fill="none" xmlns="http://www.w3.org/2000/svg">
<g filter="url(#filter0_dddd_103_485)">
<rect x="3" y="3" width="66" height="66" rx="33" fill="#02071B"/>
<path d="M39.7782 33.2289V34.2313C39.7782 34.6273 38.8298 34.7906 38.6871 34.1482C38.6276 33.8824 38.6359 32.7318 38.6775 32.4397C38.8118 31.4871 40.2088 32.1462 40.764 32.3483C41.567 32.6404 42.3576 33.0267 43.0637 33.5058C43.1163 33.5169 43.108 33.4393 43.0969 33.4033C43.036 33.2136 42.431 32.4231 42.2662 32.2292C41.2749 31.0621 39.9498 30.1843 38.4947 29.7052L38.3964 29.7357C37.3746 31.314 34.4477 31.3597 33.4729 29.7177C33.2971 29.6152 32.1562 30.1843 31.9181 30.3144C31.0043 30.8142 30.1251 31.5522 29.4772 32.3677C29.3927 32.4743 28.7253 33.3798 28.7849 33.4366C29.4979 33.1056 30.1736 32.7041 30.9102 32.4175C31.2868 32.2708 32.3999 31.8568 32.7433 31.9302C33.0354 31.9925 33.1185 32.2375 33.1434 32.5006C33.1767 32.873 33.1905 33.8076 33.1365 34.1593C33.077 34.5428 32.6934 34.6923 32.3625 34.5276C31.8738 34.2853 32.0704 33.6636 32.0344 33.2303C31.9735 33.168 30.7122 33.6885 30.5363 33.7702C29.7222 34.151 28.6727 35.1935 27.8849 34.3033C27.428 33.7868 27.5083 33.395 27.806 32.8384C28.6007 31.3528 30.3536 29.8035 31.8724 29.0932C32.2933 28.8966 33.5768 28.3594 33.9755 28.491C34.2386 28.5782 34.2566 28.9119 34.3854 29.1195C34.9503 30.0389 36.8526 30.0776 37.43 29.1874C37.6833 28.7969 37.567 28.3927 38.2745 28.4771C39.7145 28.6502 41.9256 30.1939 42.8892 31.2614C43.5012 31.9399 44.7528 33.3743 44.0287 34.2631C43.2354 35.2392 41.981 34.0776 41.1392 33.701C40.7086 33.5085 40.2461 33.3119 39.7782 33.2289Z" fill="white"/>
<path d="M36.7598 48.2525C36.9993 47.9935 37.9021 47.5754 38.2787 47.3165C38.7328 47.005 39.1745 46.6409 39.5704 46.2573C39.1177 46.0898 38.4213 45.6468 38.9086 45.1123C39.2298 44.7593 39.522 44.9905 39.8487 45.1511C41.7954 46.1078 41.0021 46.4567 39.7421 47.6045L37.7041 48.9877C39.7255 49.0375 41.8162 48.24 43.2727 46.8472C42.532 45.4238 43.4859 43.2764 44.9175 42.6852C45.1668 42.5828 45.7704 42.5537 45.8507 42.3737C45.913 42.2338 45.9892 41.482 46.0016 41.2799C46.0889 39.8234 45.7441 38.1827 45.0699 36.8909C45.0186 36.7912 44.93 36.5849 44.8276 36.5461C44.8566 37.6773 44.7722 38.8196 44.5036 39.9203C44.4163 40.2789 44.3443 40.9227 43.8875 40.9684C43.5829 40.9988 42.1069 40.1543 42.0211 39.8649C41.9352 39.5755 42.1194 39.2003 42.4406 39.1671C42.9044 39.1186 43.036 39.426 43.4444 39.5174C43.8044 38.5011 43.6133 37.3796 43.7213 36.3717C43.8362 35.2931 45.1834 34.9941 45.8092 35.9439C46.5015 36.9947 47.0248 38.8528 47.1093 40.1058C47.1564 40.8119 47.0511 42.8417 46.6967 43.4246C46.4405 43.8455 46.0972 43.5935 45.7677 43.6018C44.7514 43.6267 43.8404 45.2591 44.2114 46.1812C44.3471 46.519 44.7777 46.7004 44.541 47.1462C44.3762 47.4563 43.443 48.1943 43.1204 48.4214C41.6403 49.4612 39.2118 50.3127 37.3926 50.0953C36.5327 49.9915 36.1825 48.8797 36.7612 48.2511L36.7598 48.2525Z" fill="white"/>
<path d="M28.4391 39.5197C28.896 39.4616 29.0981 38.9715 29.5952 39.2968C29.8167 39.4422 29.8845 39.697 29.807 39.9545C29.7461 40.1539 28.4681 40.9154 28.248 40.9583C27.8769 41.0317 27.6873 40.8004 27.5723 40.4889C27.1154 39.2539 27.1542 37.8417 27.0905 36.5485C25.9829 38.311 25.7295 40.4585 26.0937 42.4868C27.787 42.5353 29.1078 44.4473 28.9154 46.0451C28.8849 46.2985 28.6024 46.7803 28.6772 46.916C28.7201 46.9949 29.5204 47.5736 29.663 47.6636C31.0032 48.5193 32.6467 49.0593 34.2472 48.9886L32.2784 47.6747C32.0652 47.503 30.9936 46.5518 30.9423 46.3843C30.9063 46.2666 30.9063 46.0465 30.9423 45.9288C31.0074 45.7128 32.3103 44.9762 32.5526 44.9749C33.4719 44.9693 33.1438 46.1268 32.3795 46.2597C33.051 47.0863 34.1129 47.4809 34.9187 48.0762C35.7245 48.6716 35.5515 49.9786 34.5588 50.0977C32.493 50.3455 29.861 49.2988 28.2674 48.0209C28.086 47.8755 27.4962 47.384 27.4104 47.2192C27.121 46.6626 27.7399 46.4023 27.8105 45.8388C27.9116 45.0289 27.2885 43.9544 26.5021 43.7024C25.6811 43.4408 25.3958 44.1247 25.0705 42.9202C24.5707 41.0691 24.8462 38.6835 25.6132 36.9376C25.9497 36.1719 26.3913 35.1626 27.4062 35.4021C28.5277 35.6666 28.176 37.2006 28.2314 38.0327C28.2646 38.5187 28.4197 39.0282 28.4391 39.5197Z" fill="white"/>
<path d="M35.4777 34.2862C37.9269 34.073 40.228 35.5337 41.0934 37.8237C42.5956 41.7974 39.2533 45.9164 35.0623 45.2352C28.6629 44.1954 28.98 34.8497 35.4777 34.2862ZM35.6147 35.3925C29.7346 35.7746 30.5058 44.6232 36.2156 44.2176C41.9504 43.8105 41.5281 35.0089 35.6147 35.3925Z" fill="white"/>
<path d="M35.615 21.0153C40.8181 20.6096 41.1919 28.3936 36.2159 28.7342C31.1789 29.0789 30.4936 21.4141 35.615 21.0153ZM35.5444 22.1202C31.9169 22.5536 32.6701 28.3603 36.5454 27.5448C39.8406 26.8512 39.1082 21.6938 35.5444 22.1202Z" fill="white"/>
<path d="M48.0578 43.2693C52.4108 42.6795 54.2688 48.2108 50.7659 50.3997C47.9858 52.1373 44.2503 49.6064 44.9259 46.3596C45.2402 44.8491 46.4877 43.4826 48.0578 43.2693ZM48.6628 44.3285C45.4451 44.3271 44.9051 49.2215 48.2654 49.8002C52.1629 50.4704 52.7084 44.3299 48.6628 44.3285Z" fill="white"/>
<path d="M22.5447 43.2693C27.7728 42.6047 28.6478 49.8944 24.0165 50.8926C18.7774 52.0224 17.6102 43.8951 22.5447 43.2693ZM23.1027 44.305C22.5696 44.3313 21.9106 44.5846 21.4911 44.9114C18.8051 47.0076 21.6808 51.3094 24.7281 49.3918C27.0846 47.9075 25.7555 44.1762 23.1027 44.305Z" fill="white"/>
</g>
<defs>
<filter id="filter0_dddd_103_485" x="0" y="0" width="96" height="103" filterUnits="userSpaceOnUse" color-interpolation-filters="sRGB">
<feFlood flood-opacity="0" result="BackgroundImageFix"/>
<feColorMatrix in="SourceAlpha" type="matrix" values="0 0 0 0 0 0 0 0 0 0 0 0 0 0 0 0 0 0 127 0" result="hardAlpha"/>
<feOffset dx="1" dy="1"/>
<feGaussianBlur stdDeviation="2"/>
<feColorMatrix type="matrix" values="0 0 0 0 0 0 0 0 0 0 0 0 0 0 0 0 0 0 0.1 0"/>
<feBlend mode="normal" in2="BackgroundImageFix" result="effect1_dropShadow_103_485"/>
<feColorMatrix in="SourceAlpha" type="matrix" values="0 0 0 0 0 0 0 0 0 0 0 0 0 0 0 0 0 0 127 0" result="hardAlpha"/>
<feOffset dx="4" dy="6"/>
<feGaussianBlur stdDeviation="3.5"/>
<feColorMatrix type="matrix" values="0 0 0 0 0 0 0 0 0 0 0 0 0 0 0 0 0 0 0.09 0"/>
<feBlend mode="normal" in2="effect1_dropShadow_103_485" result="effect2_dropShadow_103_485"/>
<feColorMatrix in="SourceAlpha" type="matrix" values="0 0 0 0 0 0 0 0 0 0 0 0 0 0 0 0 0 0 127 0" result="hardAlpha"/>
<feOffset dx="9" dy="13"/>
<feGaussianBlur stdDeviation="4.5"/>
<feColorMatrix type="matrix" values="0 0 0 0 0 0 0 0 0 0 0 0 0 0 0 0 0 0 0.05 0"/>
<feBlend mode="normal" in2="effect2_dropShadow_103_485" result="effect3_dropShadow_103_485"/>
<feColorMatrix in="SourceAlpha" type="matrix" values="0 0 0 0 0 0 0 0 0 0 0 0 0 0 0 0 0 0 127 0" result="hardAlpha"/>
<feOffset dx="16" dy="23"/>
<feGaussianBlur stdDeviation="5.5"/>
<feColorMatrix type="matrix" values="0 0 0 0 0 0 0 0 0 0 0 0 0 0 0 0 0 0 0.01 0"/>
<feBlend mode="normal" in2="effect3_dropShadow_103_485" result="effect4_dropShadow_103_485"/>
<feBlend mode="normal" in="SourceGraphic" in2="effect4_dropShadow_103_485" result="shape"/>
</filter>
</defs>
</svg>
