<svg width="96" height="103" viewBox="0 0 96 103" fill="none" xmlns="http://www.w3.org/2000/svg">
<g filter="url(#filter0_dddd_103_481)">
<rect x="3" y="3" width="66" height="66" rx="33" fill="#02071B"/>
<path d="M36.5144 27.3614L36.5211 29.0239C38.5969 29.2668 40.5438 30.2946 41.7072 32.0511L43.1121 31.2433C42.7149 29.8653 43.0463 28.4725 44.1815 27.5614C45.9003 26.182 48.5692 26.9656 49.2549 29.0481C50.0935 31.5922 47.7977 33.9229 45.2308 33.2064C44.5733 33.0225 44.164 32.6039 43.6555 32.1906L42.3003 32.985L42.2788 33.0735C43.1872 34.9131 43.1443 37.1258 42.2761 38.9721L43.7011 39.8054C46.4894 36.6347 51.3011 40.6963 48.6349 43.9368C46.3418 46.7237 41.9299 44.1501 43.1335 40.7943L41.7058 39.9463C40.5076 41.6893 38.6197 42.7319 36.5211 42.9734L36.5144 44.6359C38.9068 45.0143 40.0246 47.8831 38.4882 49.7965C37.2121 51.3852 34.7915 51.4053 33.4967 49.8314C31.916 47.9099 33.0243 45.0263 35.4369 44.6372L35.4302 42.9747C33.3719 42.7251 31.4102 41.7174 30.275 39.957L28.8379 40.7554C29.1599 41.8248 29.0378 42.9707 28.3388 43.867C26.9808 45.6073 24.2811 45.496 23.0883 43.6282C21.5103 41.1552 23.7753 38.0919 26.6011 38.7762C27.2975 38.9453 27.7698 39.3585 28.2945 39.8054L29.651 39.0124L29.6725 38.9238C28.7641 37.0842 28.807 34.8715 29.6752 33.0252L28.2502 32.1919C26.8306 33.8263 24.202 33.6532 23.0628 31.8001C21.4378 29.1554 24.1107 25.9928 26.9996 27.1266C28.5736 27.7452 29.4256 29.609 28.8178 31.2044L30.2455 32.0524C31.4263 30.304 33.3437 29.2668 35.4302 29.0253L35.4369 27.3628C33.023 26.9723 31.9147 24.0901 33.4967 22.1686C34.7915 20.5947 37.2121 20.6148 38.4882 22.2035C40.0246 24.1156 38.9068 26.9857 36.5144 27.3641V27.3614ZM35.6932 22.0868C33.0324 22.3994 33.3383 26.5268 36.1427 26.3524C38.9417 26.1793 38.6546 21.7379 35.6932 22.0868ZM25.5129 27.9814C22.8467 28.2953 23.1607 32.4214 25.9624 32.247C28.7614 32.0739 28.4743 27.6325 25.5129 27.9814ZM45.8735 27.9814C43.2154 28.294 43.5159 32.4214 46.323 32.247C49.122 32.0739 48.8349 27.6325 45.8735 27.9814ZM35.4262 30.1242C30.8533 30.5294 28.5159 35.8511 31.2599 39.541C33.8281 42.9948 39.2463 42.544 41.2121 38.7225C43.3482 34.5669 40.0621 29.7136 35.4262 30.1242ZM25.5129 39.7678C22.844 40.0818 23.1634 44.2078 25.9624 44.0334C28.7614 43.8603 28.4743 39.4189 25.5129 39.7678ZM45.8735 39.7678C43.2073 40.0818 43.5213 44.2078 46.323 44.0334C49.122 43.8603 48.8349 39.4189 45.8735 39.7678ZM35.6932 45.661C33.0337 45.975 33.3303 50.1011 36.1427 49.9266C38.9417 49.7535 38.6546 45.3122 35.6932 45.661Z" fill="white"/>
<path d="M38.5034 34.0006C39.032 33.8906 39.346 34.4367 39.0186 34.9224C38.6912 35.4082 36.4142 37.653 35.911 38.0421C35.5219 38.3427 35.3595 38.3427 34.9704 38.0421C34.5544 37.7215 33.3159 36.4816 32.9952 36.067C32.755 35.757 32.6343 35.4766 32.9952 35.1935C33.1603 35.0647 33.2931 35.0231 33.5011 35.0888C33.9479 35.2311 34.9449 36.6883 35.4642 36.9298C36.0358 36.5568 38.0458 34.0945 38.5034 33.9993V34.0006Z" fill="white"/>
</g>
<defs>
<filter id="filter0_dddd_103_481" x="0" y="0" width="96" height="103" filterUnits="userSpaceOnUse" color-interpolation-filters="sRGB">
<feFlood flood-opacity="0" result="BackgroundImageFix"/>
<feColorMatrix in="SourceAlpha" type="matrix" values="0 0 0 0 0 0 0 0 0 0 0 0 0 0 0 0 0 0 127 0" result="hardAlpha"/>
<feOffset dx="1" dy="1"/>
<feGaussianBlur stdDeviation="2"/>
<feColorMatrix type="matrix" values="0 0 0 0 0 0 0 0 0 0 0 0 0 0 0 0 0 0 0.1 0"/>
<feBlend mode="normal" in2="BackgroundImageFix" result="effect1_dropShadow_103_481"/>
<feColorMatrix in="SourceAlpha" type="matrix" values="0 0 0 0 0 0 0 0 0 0 0 0 0 0 0 0 0 0 127 0" result="hardAlpha"/>
<feOffset dx="4" dy="6"/>
<feGaussianBlur stdDeviation="3.5"/>
<feColorMatrix type="matrix" values="0 0 0 0 0 0 0 0 0 0 0 0 0 0 0 0 0 0 0.09 0"/>
<feBlend mode="normal" in2="effect1_dropShadow_103_481" result="effect2_dropShadow_103_481"/>
<feColorMatrix in="SourceAlpha" type="matrix" values="0 0 0 0 0 0 0 0 0 0 0 0 0 0 0 0 0 0 127 0" result="hardAlpha"/>
<feOffset dx="9" dy="13"/>
<feGaussianBlur stdDeviation="4.5"/>
<feColorMatrix type="matrix" values="0 0 0 0 0 0 0 0 0 0 0 0 0 0 0 0 0 0 0.05 0"/>
<feBlend mode="normal" in2="effect2_dropShadow_103_481" result="effect3_dropShadow_103_481"/>
<feColorMatrix in="SourceAlpha" type="matrix" values="0 0 0 0 0 0 0 0 0 0 0 0 0 0 0 0 0 0 127 0" result="hardAlpha"/>
<feOffset dx="16" dy="23"/>
<feGaussianBlur stdDeviation="5.5"/>
<feColorMatrix type="matrix" values="0 0 0 0 0 0 0 0 0 0 0 0 0 0 0 0 0 0 0.01 0"/>
<feBlend mode="normal" in2="effect3_dropShadow_103_481" result="effect4_dropShadow_103_481"/>
<feBlend mode="normal" in="SourceGraphic" in2="effect4_dropShadow_103_481" result="shape"/>
</filter>
</defs>
</svg>
